<?xml version="1.0" encoding="UTF-8"?>
<svg width="1000px" height="400px" viewBox="0 0 1000 400" version="1.1" xmlns="http://www.w3.org/2000/svg" xmlns:xlink="http://www.w3.org/1999/xlink">
    <title>es-kit</title>
    <g id="es-kit" stroke="none" stroke-width="1" fill="none" fill-rule="evenodd">
        <g id="logo" transform="translate(125.000000, 83.000000)">
            <g>
                <g id="medium-navy" transform="translate(180.000000, 85.000000)">
                    <rect id="medium" stroke="#FFFFFF" stroke-width="15" fill="#D8D8D8" transform="translate(40.000000, 40.000000) rotate(-180.000000) translate(-40.000000, -40.000000) " x="-7.5" y="-7.5" width="95" height="95"></rect>
                    <g id="shape" fill="#0779A1" transform="translate(40.000000, 40.000000) rotate(-180.000000) translate(-40.000000, -40.000000) ">
                        <rect id="Rectangle" x="0" y="0" width="80" height="80"></rect>
                    </g>
                </g>
                <g id="medium-sky" transform="translate(0.000000, 70.000000)">
                    <rect id="medium" stroke="#FFFFFF" stroke-width="15" fill="#D8D8D8" x="-7.5" y="-7.5" width="95" height="95"></rect>
                    <g id="shape" fill="#17A8E0">
                        <rect id="Rectangle" x="0" y="0" width="80" height="80"></rect>
                    </g>
                </g>
                <g id="large-yellow" transform="translate(95.000000, 0.000000)">
                    <rect id="large" stroke="#FFFFFF" stroke-width="15" fill="#D8D8D8" x="-7.5" y="-7.5" width="125" height="125"></rect>
                    <g id="shape" fill="#FED10A">
                        <rect id="Rectangle" x="0" y="0" width="110" height="110"></rect>
                    </g>
                </g>
                <g id="small-pink" transform="translate(40.000000, 15.000000)">
                    <rect id="small" stroke="#FFFFFF" stroke-width="15" fill="#D8D8D8" x="-7.5" y="-7.5" width="55" height="55"></rect>
                    <g id="shape" fill="#EF5098">
                        <rect id="Rectangle" x="0" y="0" width="40" height="40"></rect>
                    </g>
                </g>
                <g id="large-seafoam" transform="translate(55.000000, 125.000000)">
                    <rect id="large" stroke="#FFFFFF" stroke-width="15" fill="#D8D8D8" transform="translate(55.000000, 55.000000) rotate(-180.000000) translate(-55.000000, -55.000000) " x="-7.5" y="-7.5" width="125" height="125"></rect>
                    <g id="shape" fill="#24BBB1" transform="translate(55.000000, 55.000000) rotate(-180.000000) translate(-55.000000, -55.000000) ">
                        <rect id="Rectangle" x="0" y="0" width="110" height="110"></rect>
                    </g>
                </g>
                <g id="small-grass" transform="translate(180.000000, 180.000000)">
                    <rect id="small" stroke="#FFFFFF" stroke-width="15" fill="#D8D8D8" transform="translate(20.000000, 20.000000) rotate(-180.000000) translate(-20.000000, -20.000000) " x="-7.5" y="-7.5" width="55" height="55"></rect>
                    <g id="shape" fill="#93C83E" transform="translate(20.000000, 20.000000) rotate(-180.000000) translate(-20.000000, -20.000000) ">
                        <rect id="Rectangle" x="0" y="0" width="40" height="40"></rect>
                    </g>
                </g>
            </g>
            <g id="text" transform="translate(317.000000, 63.000000)" fill="#262626" fill-rule="nonzero">
                <polygon id="E" points="0 0.596205962 70.7562831 0.596205962 70.7562831 15.9485095 15.8719545 15.9485095 15.8719545 46.802168 64.6745062 46.802168 64.6745062 62.1544715 15.8719545 62.1544715 15.8719545 93.4552846 72.8329875 93.4552846 72.8329875 108.807588 0 108.807588"></polygon>
                <path d="M153.231112,21.3143631 C149.473266,19.3270099 145.418748,17.6377597 141.067558,16.2466125 C136.716368,14.8554652 132.513514,14.1598916 128.458996,14.1598916 C122.921118,14.1598916 118.520483,15.4268293 115.25709,17.9607046 C111.993698,20.4945799 110.362001,23.9476061 110.362001,28.3197832 C110.362001,31.4001807 111.449799,34.0831075 113.625394,36.3685637 C115.800989,38.6540199 118.619373,40.6413731 122.080547,42.3306233 C125.541721,44.0198735 129.200676,45.6097561 133.057413,47.100271 C136.320805,48.2926829 139.559475,49.7086721 142.773422,51.3482385 C145.98737,52.9878049 148.904645,55 151.525248,57.3848238 C154.145851,59.7696477 156.222555,62.7258356 157.755361,66.2533875 C159.288166,69.7809395 160.054569,74.0785908 160.054569,79.1463415 C160.054569,84.9096658 158.645377,90.1264679 155.826993,94.796748 C153.008608,99.467028 148.95409,103.168473 143.663439,105.901084 C138.372787,108.633695 131.969615,110 124.453924,110 C119.904952,110 115.479594,109.47832 111.17785,108.434959 C106.876105,107.391599 102.821587,106.000452 99.0142956,104.261518 C95.2070043,102.522584 91.7705531,100.609756 88.704942,98.5230352 L95.8250711,86.1517615 C98.1984475,87.8410117 100.917941,89.4557362 103.983552,90.995935 C107.049164,92.5361337 110.238388,93.7533875 113.551226,94.6476965 C116.864064,95.5420054 120.003843,95.9891599 122.970563,95.9891599 C126.233956,95.9891599 129.447903,95.4177958 132.612405,94.2750678 C135.776907,93.1323397 138.39751,91.3437218 140.474214,88.9092141 C142.550918,86.4747064 143.589271,83.2700994 143.589271,79.295393 C143.589271,75.9168925 142.674532,73.0600723 140.845054,70.7249322 C139.015577,68.3897922 136.592755,66.3775971 133.576589,64.6883469 C130.560423,62.9990967 127.321753,61.5085818 123.86058,60.2168022 C120.498296,58.9250226 117.086568,57.4841915 113.625394,55.8943089 C110.16422,54.3044264 106.950273,52.3915989 103.983552,50.1558266 C101.016832,47.9200542 98.6187329,45.1377597 96.7892552,41.8089431 C94.9597776,38.4801265 94.0450388,34.3812105 94.0450388,29.5121951 C94.0450388,23.7488708 95.4047857,18.7059621 98.1242795,14.3834688 C100.843773,10.0609756 104.626342,6.65763324 109.471985,4.17344173 C114.317629,1.68925023 119.904952,0.298102981 126.233956,0 C133.452976,0 139.732534,0.894308943 145.072631,2.68292683 C150.412728,4.47154472 155.15948,6.60794941 159.312889,9.09214092 L153.231112,21.3143631 Z" id="S"></path>
                <polygon id="K" points="227.577127 43.2249322 227.132119 48.5907859 229.357159 45.4607046 271.48459 0.596205962 291.954961 0.596205962 247.454154 47.5474255 294.031666 108.807588 274.006302 108.807588 235.883944 57.5338753 227.577127 65.7317073 227.577127 108.807588 211.556837 108.807588 211.556837 0.596205962 227.577127 0.596205962"></polygon>
                <path d="M309.606948,46.3550136 L324.885558,46.3550136 L324.885558,108.807588 L309.606948,108.807588 L309.606948,46.3550136 Z M308.716932,23.99729 C308.716932,21.6124661 309.656393,19.6251129 311.535316,18.0352304 C313.414239,16.4453478 315.441498,15.6504065 317.617093,15.6504065 C319.891579,15.6504065 321.918838,16.4453478 323.69887,18.0352304 C325.478902,19.6251129 326.368919,21.6124661 326.368919,23.99729 C326.368919,26.3821138 325.478902,28.3446251 323.69887,29.8848238 C321.918838,31.4250226 319.891579,32.195122 317.617093,32.195122 C315.441498,32.195122 313.414239,31.4250226 311.535316,29.8848238 C309.656393,28.3446251 308.716932,26.3821138 308.716932,23.99729 Z" id="i"></path>
                <polygon id="t" points="354.107755 18.9295393 369.386365 18.9295393 369.386365 46.504065 386 46.504065 386 58.5772358 369.386365 58.5772358 369.386365 108.807588 354.107755 108.807588 354.107755 58.5772358 343.130889 58.5772358 343.130889 46.504065 354.107755 46.504065"></polygon>
            </g>
        </g>
    </g>
</svg>